<?xml version="1.0" standalone="no"?>
<!DOCTYPE svg PUBLIC "-//W3C//DTD SVG 20010904//EN"
 "http://www.w3.org/TR/2001/REC-SVG-20010904/DTD/svg10.dtd">
<svg version="1.0" xmlns="http://www.w3.org/2000/svg"
 width="847.000000pt" height="847.000000pt" viewBox="0 0 847.000000 847.000000"
 preserveAspectRatio="xMidYMid meet">
<metadata>
Created by potrace 1.11, written by Peter Selinger 2001-2013
</metadata>
<g transform="translate(0.000000,847.000000) scale(0.100000,-0.100000)"
fill="#000000" stroke="none">
<path d="M3467 7053 c-3 -16 -6 -71 -8 -123 -7 -172 -4 -5518 2 -5525 7 -6
188 95 739 410 151 87 291 167 310 178 19 10 251 143 515 295 264 151 500 287
525 301 286 163 396 227 398 233 2 5 8 8 13 8 8 0 488 274 571 327 21 12 40
23 43 23 3 0 43 22 88 48 45 27 172 101 282 164 110 64 297 172 415 240 118
68 323 187 455 263 132 76 260 150 285 165 25 15 101 60 168 100 117 68 123
73 103 86 -16 11 -433 256 -946 554 -26 15 -78 45 -207 119 -18 10 -127 74
-243 141 -115 68 -226 132 -245 143 -19 10 -161 93 -315 182 -382 222 -1022
593 -1065 618 -19 10 -235 135 -480 277 -245 141 -623 360 -840 485 -217 125
-429 247 -471 271 -42 24 -78 44 -81 44 -3 0 -8 -12 -11 -27z m1328 -1528
c242 -139 523 -301 625 -360 229 -133 241 -140 288 -166 50 -29 818 -474 1072
-621 113 -66 208 -123 212 -126 4 -4 -75 -56 -175 -116 -182 -109 -731 -431
-797 -467 -19 -11 -42 -24 -50 -29 -13 -9 -240 -140 -353 -204 -23 -13 -177
-101 -342 -196 -165 -95 -320 -184 -345 -198 -25 -13 -49 -28 -55 -32 -5 -4
-35 -21 -65 -37 -30 -17 -150 -85 -266 -152 -116 -66 -216 -121 -222 -121 -7
0 -12 46 -14 128 -5 204 -6 2956 -1 2965 6 9 -22 24 488 -268z"/>
<path d="M43 6522 l-33 -3 0 -410 0 -409 1468 0 1467 0 0 410 0 410 -25 1
c-107 2 -2852 3 -2877 1z"/>
<path d="M518 4530 c0 -3 -2 -159 -3 -347 l-1 -343 1216 0 1216 0 0 345 c0
190 -2 346 -5 346 -18 5 -2421 4 -2423 -1z"/>
<path d="M1429 2451 c0 -100 0 -274 1 -302 0 -14 74 -16 743 -16 l743 0 -1
206 0 206 -100 1 c-56 0 -106 -4 -114 -10 -11 -8 -13 -8 -8 0 4 7 -7 11 -33
11 -26 0 -37 -4 -33 -11 4 -6 -1 -5 -10 3 -14 11 -20 11 -34 0 -9 -8 -14 -9
-11 -4 8 14 -970 14 -991 1 -9 -6 -12 -5 -7 2 8 14 -34 12 -53 -2 -11 -8 -13
-8 -8 0 4 8 -8 11 -38 11 l-45 0 -1 -96z m974 -276 c-3 -9 -8 -14 -10 -11 -3
3 -2 9 2 15 9 16 15 13 8 -4z"/>
</g>
</svg>
